<svg width="2058" height="915" viewBox="0 0 2058 915" fill="none" xmlns="http://www.w3.org/2000/svg">
<path d="M1774.27 587V400.866H1707.42V349.162H1910.55V400.866H1843.7V587H1774.27Z" fill="black"/>
<path d="M1595.27 590.693C1579.26 590.693 1564.12 589.462 1549.84 587C1535.56 584.292 1523.38 580.599 1513.28 575.921V518.677C1524.36 523.848 1536.67 528.033 1550.21 531.234C1563.75 534.435 1576.43 536.035 1588.25 536.035C1600.56 536.035 1609.79 535.05 1615.95 533.08C1622.35 530.865 1625.55 526.063 1625.55 518.677C1625.55 513.507 1623.71 509.444 1620.01 506.49C1616.57 503.535 1611.03 500.827 1603.39 498.365C1596.01 495.903 1586.28 492.825 1574.22 489.132C1558.21 483.962 1545.53 478.299 1536.18 472.144C1526.82 465.988 1520.05 458.479 1515.87 449.616C1511.93 440.752 1509.96 429.919 1509.96 417.116C1509.96 393.726 1518.2 375.999 1534.7 363.935C1551.44 351.624 1576.19 345.469 1608.93 345.469C1621.98 345.469 1635.4 346.577 1649.19 348.793C1663.22 351.009 1674.55 353.471 1683.16 356.179V413.792C1671.59 409.114 1660.51 405.79 1649.93 403.821C1639.34 401.851 1629.37 400.866 1620.01 400.866C1609.18 400.866 1599.95 401.728 1592.31 403.451C1584.68 405.175 1580.87 409.607 1580.87 416.747C1580.87 422.902 1584.07 427.457 1590.47 430.411C1597.11 433.12 1608.81 436.69 1625.55 441.121C1645 446.292 1659.78 452.57 1669.87 459.956C1680.21 467.343 1687.23 475.96 1690.92 485.808C1694.61 495.41 1696.46 506.367 1696.46 518.677C1696.46 540.344 1688.09 557.824 1671.35 571.12C1654.6 584.169 1629.25 590.693 1595.27 590.693Z" fill="black"/>
<path d="M1414.56 587V349.162H1483.99V587H1414.56Z" fill="black"/>
<path d="M1287.63 590.693C1271.62 590.693 1256.48 589.462 1242.2 587C1227.92 584.292 1215.73 580.599 1205.64 575.921V518.677C1216.72 523.848 1229.03 528.033 1242.57 531.234C1256.11 534.435 1268.79 536.035 1280.61 536.035C1292.92 536.035 1302.15 535.05 1308.31 533.08C1314.71 530.865 1317.91 526.063 1317.91 518.677C1317.91 513.507 1316.06 509.444 1312.37 506.49C1308.92 503.535 1303.38 500.827 1295.75 498.365C1288.37 495.903 1278.64 492.825 1266.58 489.132C1250.57 483.962 1237.89 478.299 1228.54 472.144C1219.18 465.988 1212.41 458.479 1208.22 449.616C1204.29 440.752 1202.32 429.919 1202.32 417.116C1202.32 393.726 1210.56 375.999 1227.06 363.935C1243.8 351.624 1268.55 345.469 1301.29 345.469C1314.34 345.469 1327.76 346.577 1341.55 348.793C1355.58 351.009 1366.91 353.471 1375.52 356.179V413.792C1363.95 409.114 1352.87 405.79 1342.29 403.821C1331.7 401.851 1321.73 400.866 1312.37 400.866C1301.54 400.866 1292.3 401.728 1284.67 403.451C1277.04 405.175 1273.22 409.607 1273.22 416.747C1273.22 422.902 1276.42 427.457 1282.83 430.411C1289.47 433.12 1301.17 436.69 1317.91 441.121C1337.36 446.292 1352.13 452.57 1362.23 459.956C1372.57 467.343 1379.59 475.96 1383.28 485.808C1386.97 495.41 1388.82 506.367 1388.82 518.677C1388.82 540.344 1380.45 557.824 1363.71 571.12C1346.96 584.169 1321.6 590.693 1287.63 590.693Z" fill="black"/>
<path d="M937.232 587L1028.45 349.162H1101.95L1193.17 587H1120.78L1100.84 536.404H1029.19L1009.62 587H937.232ZM1038.42 486.547H1091.61L1065.01 416.747L1038.42 486.547Z" fill="black"/>
<path d="M431.998 134C358.655 134 255.303 157.1 147.102 197.344V390.984L147.093 391.436C144.48 485.185 195.652 700.531 431.998 781C668.348 700.532 719.52 485.186 716.907 391.436L716.898 390.984V197.344C608.695 157.099 505.339 134 431.998 134Z" fill="url(#paint0_linear_17_64)"/>
<path d="M264.73 450.893C344.454 346.001 495.042 347.993 560.371 362.1C599.568 505.497 491.443 557.943 432.481 566.241C330.17 582.174 278.018 495.981 264.73 450.893Z" fill="#79C1EB" stroke="black" stroke-width="2"/>
<path d="M347.193 296.133C306.659 305.088 321.27 271.584 333.642 253.713C341.572 240.162 399.039 240.752 404.931 267.264C410.822 293.776 397.861 284.939 347.193 296.133Z" fill="#163258"/>
<path d="M498.018 253.713C468.796 258.898 464.24 241.341 465.614 231.914C465.614 220.327 468.678 196.565 480.933 194.208C496.251 191.262 534.546 204.224 534.546 231.914C534.546 259.605 534.546 247.232 498.018 253.713Z" fill="#163258"/>
<path d="M427.908 194.208C412.393 198.136 379.126 205.166 370.17 201.867C376.455 183.407 395.504 147.311 421.427 150.61C447.35 153.909 436.549 181.05 427.908 194.208Z" fill="#163258"/>
<path d="M192.833 311.451C165.967 311.451 173.783 292.205 181.05 282.582C191.655 277.476 216.164 267.264 229.361 267.264C242.558 267.264 240.751 286.51 238.198 296.133C234.271 301.239 219.699 311.451 192.833 311.451Z" fill="#163258"/>
<path d="M229.361 385.685C220.523 411.019 181.05 386.864 181.05 360.351C203.438 327.358 220.523 350.336 229.361 350.336C238.198 350.336 238.198 360.351 229.361 385.685Z" fill="#163258"/>
<path d="M596.408 253.713C582.268 219.778 624.884 233.093 632.936 247.232C648.058 251.749 651.671 267.264 665.34 267.264C682.425 267.264 665.34 282.582 632.936 296.133C600.532 309.683 614.083 296.133 596.408 253.713Z" fill="#163258"/>
<path d="M216 215.5V184L302 161.5C308 166 320.2 178.842 321 194.208C322 213.416 275 201.867 259 221.5C246.2 237.206 225 224.044 216 215.5Z" fill="#163258"/>
<path d="M570.5 184C564.1 184 573.167 169 578.5 161.5C604.5 169 665.34 169.5 654 201.867C648.035 218.893 638.5 206.5 605.5 194.208C572.5 181.916 578.5 184 570.5 184Z" fill="#163258"/>
<circle cx="58.9161" cy="58.9161" r="58.4161" transform="matrix(-1 0 0 1 470.327 349.746)" fill="#05203E" stroke="#360404"/>
<circle cx="38.1803" cy="38.1803" r="38.1803" transform="matrix(-1 0 0 1 390.67 370.222)" fill="#EFF7FF"/>
<path d="M688.369 316.613C682.917 315.485 676.826 316.077 671.406 317.875C665.995 319.669 661.138 322.704 658.235 326.575C656.246 329.227 652.267 331.288 646.86 332.8C641.496 334.299 634.914 335.208 627.949 335.693C614.069 336.661 598.814 335.94 588.967 334.972C557.397 324.686 488.882 316.228 417.255 328.061C346.093 339.818 271.671 371.64 227.41 441.817L226.371 443.482L226.346 443.522L226.325 443.565C200.668 495.585 203.74 554.133 218.449 601.107C225.805 624.6 236.083 645.239 247.175 660.762C258.237 676.241 270.219 686.786 281.043 689.826L282.704 690.293L282.284 688.618L281.314 688.863C282.279 688.62 282.283 688.617 282.283 688.616C282.282 688.615 282.281 688.612 282.281 688.609C282.279 688.603 282.277 688.594 282.274 688.583C282.268 688.559 282.259 688.523 282.247 688.475C282.223 688.38 282.188 688.237 282.141 688.05C282.047 687.674 281.907 687.118 281.728 686.393C281.369 684.944 280.847 682.823 280.194 680.138C278.887 674.767 277.058 667.137 274.969 658.104C270.791 640.037 265.573 616.365 261.411 593.926C257.245 571.46 254.155 550.315 254.2 537.263C254.211 534.005 254.418 531.293 254.838 529.211C255.267 527.086 255.883 525.795 256.566 525.176C256.882 524.889 257.21 524.748 257.574 524.719C257.953 524.688 258.447 524.773 259.082 525.072C260.377 525.681 262.05 527.077 264.135 529.503C290.55 560.24 307.553 570.474 326.422 577.43C413.147 609.401 484.135 588.088 533.417 548.763C582.293 509.761 609.882 452.986 610.258 412.91C630.689 408.945 652.081 398.403 669.144 386.113C677.793 379.883 685.356 373.187 691.132 366.641C696.894 360.112 700.94 353.663 702.455 347.926C705.019 338.218 704.351 330.956 701.538 325.798C698.717 320.623 693.835 317.744 688.369 316.613ZM414.077 364.7C466.87 354.455 517.955 358.252 548.902 364.919L549.495 365.047L549.656 365.633C568.236 433.442 551.915 479.908 523.815 510.385C495.776 540.794 456.121 555.167 428.137 559.099V559.1C379.512 566.654 342.768 549.986 316.634 526.092C290.532 502.226 275.007 471.153 268.695 449.786L268.551 449.3L268.858 448.896C306.676 399.258 361.277 374.946 414.077 364.7Z" fill="#05203E"/>
<path d="M736.902 396.251L736.905 396.4H736.904C739.515 496.734 686.873 725.61 442.579 811.2L431.998 814.907L421.417 811.2C177.128 725.609 124.486 496.734 127.096 396.401L127.098 396.252V183.651L147.659 175.781C254.194 135.004 357.093 116 431.998 116C506.901 116 609.804 135.003 716.341 175.781L736.902 183.651V396.251Z" stroke="#0A101C" stroke-width="64"/>
<defs>
<linearGradient id="paint0_linear_17_64" x1="297" y1="355" x2="636" y2="810" gradientUnits="userSpaceOnUse">
<stop stop-color="#39A0D1"/>
<stop offset="1" stop-color="#0F5677"/>
</linearGradient>
</defs>
</svg>
